<?xml version="1.0" encoding="utf-8"?>
<!-- Generator: Adobe Illustrator 17.0.0, SVG Export Plug-In . SVG Version: 6.00 Build 0)  -->
<!DOCTYPE svg PUBLIC "-//W3C//DTD SVG 1.1//EN" "http://www.w3.org/Graphics/SVG/1.1/DTD/svg11.dtd">
<svg version="1.1" id="Layer_1" xmlns="http://www.w3.org/2000/svg" xmlns:xlink="http://www.w3.org/1999/xlink" x="0px" y="0px"
	 width="56px" height="56px" viewBox="0 0 56 56" enable-background="new 0 0 56 56" xml:space="preserve">
<g>
	<defs>
		<rect id="SVGID_1_" width="56" height="56"/>
	</defs>
	<clipPath id="SVGID_2_">
		<use xlink:href="#SVGID_1_"  overflow="visible"/>
	</clipPath>
	<path clip-path="url(#SVGID_2_)" fill="#0068FF" d="M56,28c0,15.464-12.536,28-28,28S0,43.464,0,28S12.536,0,28,0S56,12.536,56,28"
		/>
	<path clip-path="url(#SVGID_2_)" fill="#FFFFFF" d="M28,8C16.954,8,8,16.954,8,28c0,4.407,1.442,8.468,3.857,11.773
		c0.003,0.069-0.003,0.128,0.005,0.203c0.344,3.09-1.716,4.464-1.716,4.464c0.828,1.242,5.475-0.386,5.805-0.504
		C19.304,46.476,23.469,48,28,48c11.045,0,20-8.955,20-20C48,16.954,39.045,8,28,8"/>
	<path clip-path="url(#SVGID_2_)" fill-rule="evenodd" clip-rule="evenodd" fill="#0068FF" d="M28.637,25.755v-0.584h1.75v8.213
		h-1.001c-0.412,0-0.747-0.333-0.749-0.744h-0.001c-0.705,0.516-1.576,0.822-2.517,0.822c-2.356,0-4.267-1.909-4.267-4.264
		c0-2.356,1.911-4.265,4.267-4.265c0.941,0,1.812,0.306,2.517,0.821C28.636,25.755,28.637,25.755,28.637,25.755 M21.399,22.53v0.266
		c0,0.496-0.066,0.902-0.389,1.378l-0.039,0.044c-0.071,0.08-0.236,0.268-0.315,0.37l-5.616,7.05h6.359v0.998
		c0,0.413-0.336,0.748-0.75,0.748H12.41v-0.471c0-0.576,0.143-0.833,0.324-1.101l5.988-7.411H12.66V22.53H21.399z M32.509,33.384
		c-0.344,0-0.624-0.28-0.624-0.623V22.53h1.872v10.854H32.509z M39.295,24.882c2.373,0,4.296,1.924,4.296,4.293
		c0,2.371-1.923,4.295-4.296,4.295c-2.373,0-4.296-1.924-4.296-4.295C34.999,26.806,36.922,24.882,39.295,24.882 M26.119,31.706
		c1.387,0,2.511-1.123,2.511-2.508c0-1.384-1.124-2.508-2.511-2.508c-1.386,0-2.51,1.124-2.51,2.508
		C23.609,30.583,24.733,31.706,26.119,31.706 M39.295,31.702c1.395,0,2.527-1.131,2.527-2.527c0-1.394-1.132-2.526-2.527-2.526
		c-1.397,0-2.527,1.132-2.527,2.526C36.768,30.571,37.898,31.702,39.295,31.702"/>
</g>
</svg>
