<?xml version="1.0" encoding="utf-8"?>
<!-- Generator: Adobe Illustrator 24.1.0, SVG Export Plug-In . SVG Version: 6.00 Build 0)  -->
<svg version="1.1" id="Layer_1" xmlns="http://www.w3.org/2000/svg" xmlns:xlink="http://www.w3.org/1999/xlink" x="0px" y="0px"
	 viewBox="0 0 20 21" style="enable-background:new 0 0 20 21;" xml:space="preserve">
<style type="text/css">
	.st0{fill:#818181;}
</style>
<g>
	<path class="st0" d="M17.54,4.56H4.78C4.66,3.29,3.64,2.3,2.4,2.3C1.07,2.3,0,3.42,0,4.8V18.5C0,19.88,1.07,21,2.4,21H20V7.13
		L17.54,4.56z M17.68,5.4l1.52,1.59h-1.52V5.4z M0.47,4.8c0-1.11,0.86-2.01,1.93-2.01c1.06,0,1.93,0.9,1.93,2.01v11.86
		C3.95,16.26,3.39,16,2.76,16H2.4c-0.79,0-1.49,0.4-1.93,1.02V4.8z M4.32,17.85c0,0.75-0.7,1.37-1.56,1.37H2.63v-2.73h0.13
		C3.62,16.49,4.32,17.1,4.32,17.85z M19.53,20.51H2.4c-1.06,0-1.93-0.9-1.93-2.01c0-1.03,0.74-1.86,1.69-1.99v3.2h0.6
		c1.12,0,2.03-0.83,2.03-1.86c0-0.03,0-0.06,0-0.09h0V5.05h12.41v2.43h2.32V20.51z"/>
	<path class="st0" d="M17.68,18.74V8.69L8.05,18.74H17.68z M17.21,11.77h-0.46v0.49h0.46v0.98h-0.46v0.49h0.46v0.98h-0.46v0.49h0.46
		v0.98h-0.46v0.49h0.46v1.57h-1.5v-0.48h-0.47v0.48h-0.94v-0.48h-0.47v0.48h-0.94v-0.48h-0.47v0.48h-0.94v-0.48H11v0.48H9.19
		l8.02-8.37V11.77z"/>
	<path class="st0" d="M15.71,13.3l-3.24,3.39h3.24V13.3z M15.24,16.2H13.6l1.64-1.71V16.2z"/>
	<path class="st0" d="M8.93,16.12l0.45-0.16l-1.37-4.21c0.21-0.15,0.34-0.41,0.34-0.69c0-0.38-0.25-0.71-0.58-0.81V9.75H7.3v0.49
		c-0.34,0.11-0.58,0.43-0.58,0.81c0,0.29,0.14,0.54,0.35,0.69L5.7,15.96l0.44,0.16l0.49-1.5c0.29,0.08,0.6,0.13,0.91,0.13
		c0.31,0,0.61-0.04,0.9-0.13L8.93,16.12z M7.53,10.7c0.19,0,0.35,0.16,0.35,0.36c0,0.2-0.16,0.36-0.35,0.36s-0.35-0.16-0.35-0.36
		C7.19,10.86,7.34,10.7,7.53,10.7z M6.78,14.14l0.73-2.23c0.01,0,0.02,0,0.03,0c0.01,0,0.02,0,0.03,0l0.72,2.23
		C7.8,14.27,7.27,14.27,6.78,14.14z"/>
	<path class="st0" d="M10.21,12.26h0.47v-0.75h1v0.75h0.47v-0.75h1.23l0.23-0.25V9.49h1.07V9h-1.07V7.48h2.38V6.99h-2.38V6.23h-0.47
		v0.75h-1V6.23h-0.47v0.75h-1V6.23h-0.47v0.75H9.14v0.49h1.07V9H9.14v0.49h1.07V12.26z M12.15,7.48h1V9h-1V7.48z M12.15,9.49h1v1.53
		h-1V9.49z M10.68,7.48h1V9h-1V7.48z M10.68,9.49h1v1.53h-1V9.49z"/>
	<path class="st0" d="M7.95,3.39h9.92c0.89,0,1.62-0.76,1.62-1.69S18.76,0,17.87,0H7.95L7.85,0.02L4.69,1.47v0.45l3.17,1.45
		L7.95,3.39z M18.11,0.52c0.52,0.11,0.92,0.6,0.92,1.18s-0.39,1.06-0.92,1.18V0.52z M17.11,0.49h0.53V2.9h-0.53V0.49z M8.18,0.49
		h8.45v0.96H8.18V0.49z M8.18,1.94h8.45V2.9H8.18V1.94z M6.07,2.01l-0.7-0.32l0.7-0.32V2.01z M7.71,2.77L6.54,2.23V1.16l1.18-0.54
		V2.77z"/>
</g>
</svg>
