<?xml version="1.0" encoding="utf-8"?>
<!-- Generator: Adobe Illustrator 24.1.0, SVG Export Plug-In . SVG Version: 6.00 Build 0)  -->
<svg version="1.1" id="Layer_1" xmlns="http://www.w3.org/2000/svg" xmlns:xlink="http://www.w3.org/1999/xlink" x="0px" y="0px"
	 viewBox="0 0 20 12" style="enable-background:new 0 0 20 12;" xml:space="preserve">
<style type="text/css">
	.st0{fill:#818181;}
</style>
<path class="st0" d="M19.3,6.9v-1c0-0.8-0.6-1.4-1.3-1.5V1.5C18,0.7,17.4,0,16.6,0H3.4C2.6,0,2,0.7,2,1.5v2.9
	C1.3,4.4,0.7,5.1,0.7,5.9v1C0.3,7.1,0,7.6,0,8.2v3.3C0,11.8,0.2,12,0.5,12h2.2c0.3,0,0.5-0.2,0.5-0.5v-0.9c0-0.3,0.2-0.5,0.4-0.5
	h12.8c0.2,0,0.4,0.2,0.4,0.5v0.9c0,0.3,0.2,0.5,0.5,0.5h2.2c0.3,0,0.5-0.2,0.5-0.5V8.2C20,7.6,19.7,7.1,19.3,6.9z M3.4,1h13.2
	c0.2,0,0.4,0.2,0.4,0.5v2.8h-0.9V4.1c0-0.8-0.6-1.5-1.4-1.5h-3.2c-0.8,0-1.4,0.7-1.4,1.5v0.2H9.8V4.1c0-0.8-0.6-1.5-1.4-1.5H5.2
	c-0.8,0-1.4,0.7-1.4,1.5v0.2H2.9V1.5C2.9,1.2,3.1,1,3.4,1z M15.2,4.3h-4.1V4.1c0-0.3,0.2-0.5,0.4-0.5h3.2c0.2,0,0.4,0.2,0.4,0.5V4.3
	z M8.9,4.3H4.8V4.1c0-0.3,0.2-0.5,0.4-0.5h3.2c0.2,0,0.4,0.2,0.4,0.5V4.3z M2.1,5.4h15.9c0.2,0,0.4,0.2,0.4,0.5v0.8H1.6V5.9
	C1.6,5.6,1.8,5.4,2.1,5.4z M19.1,11h-1.3v-0.4c0-0.8-0.6-1.5-1.4-1.5H3.6c-0.8,0-1.4,0.7-1.4,1.5V11H1V8.2c0-0.3,0.2-0.5,0.4-0.5
	h17.2c0.2,0,0.4,0.2,0.4,0.5V11z"/>
</svg>
