<?xml version="1.0" encoding="utf-8"?>
<!-- Generator: Adobe Illustrator 25.4.1, SVG Export Plug-In . SVG Version: 6.00 Build 0)  -->
<svg version="1.1" id="Layer_1" xmlns="http://www.w3.org/2000/svg" xmlns:xlink="http://www.w3.org/1999/xlink" x="0px" y="0px"
	 viewBox="0 0 201 207" style="enable-background:new 0 0 201 207;" xml:space="preserve">
<style type="text/css">
	.st0{fill-rule:evenodd;clip-rule:evenodd;fill:#F2F2F2;}
	.st1{fill:#F1BE7E;}
	.st2{fill:#5A8492;}
</style>
<path class="st0" d="M189.8,206.9h-87.3H60.4h-19h-1.7l0,0c-9.6-0.3-10.6-3.3-5.3-12.2l44.1-74.9L98,86.6c2.2-3.6,2.2-3.3,4.5-0.5
	c1.7,2.3,2.7,3.3,0.6,6.7l-58.8,100H176c4.4,0,4.1-0.3,1.7-4.2L105.1,65.1c-2.7-4.6-2.5-4.8-5.2-0.1l-58,98.5l-0.1-0.1l-25.7,43.4
	h-1.9H0l7.1-12.1l44.2-75.1l44.1-74.9c5.5-9.4,8.7-9.6,14.2-0.2l44.2,75.1l44.1,74.9c5.5,9.4,4.2,12.2-7,12.2L189.8,206.9
	L189.8,206.9z"/>
<g>
	<path class="st1" d="M60.3,53.9V41c0-12.5,4.1-22.6,12.3-30.3c7.6-7,16.9-10.6,27.9-10.6s20.3,3.5,27.9,10.6
		c8.2,7.7,12.3,17.8,12.3,30.3v62.5c0,12.5-4.1,22.6-12.3,30.3c-7.6,7-16.9,10.6-27.9,10.6c-9.7,0-18.1-2.8-25.3-8.4
		c-7.7-6-12.4-13.9-14.1-23.9H82c3.1,8,9.2,11.9,18.5,11.9c6.1,0,10.9-1.9,14.5-5.8s5.4-9.2,5.4-15.9V88.9
		c-7.7,2.9-16.7,4.4-27.1,4.4C83.8,93.3,76,90.2,70,84C63.5,76.9,60.3,66.9,60.3,53.9z M80.6,42.2v11.5c0,6.8,1.8,12.1,5.4,15.9
		c3.6,3.8,8.4,5.8,14.5,5.8s10.9-1.9,14.5-5.8s5.4-9.2,5.4-15.9V42.2c0-6.8-1.8-12.1-5.4-15.9c-3.6-3.9-8.4-5.8-14.5-5.8
		c-6.1,0-10.9,1.9-14.5,5.8C82.4,30.1,80.6,35.4,80.6,42.2z"/>
</g>
<g>
	<path class="st2" d="M67.7,162h4.4l8.7,13.5V162h4.5v20.9H81l-8.8-13.5v13.5h-4.5V162z"/>
	<path class="st2" d="M96.2,162h4.4l8.3,20.9h-4.6l-1.8-4.5h-8.3l-1.8,4.5h-4.7L96.2,162z M94.7,159.4c-0.9-0.9-1.4-2.1-1.4-3.5h3.4
		c0,0.6,0.2,1.1,0.4,1.4c0.3,0.3,0.7,0.5,1.3,0.5c0.6,0,1-0.2,1.3-0.5c0.3-0.3,0.5-0.8,0.5-1.4h3.4c0,1.5-0.4,2.6-1.4,3.5
		c-0.9,0.9-2.2,1.3-3.8,1.3C96.8,160.7,95.6,160.2,94.7,159.4z M101.4,174.7l-3-7.9l-3,7.9H101.4z"/>
	<path class="st2" d="M111.5,162h4.5l6.4,14l6.4-14h4.4v20.9H129V171l-5.5,11.9h-2.1l-5.5-11.9v11.9h-4.4V162z"/>
</g>
</svg>
