<?xml version="1.0" encoding="utf-8"?>
<!-- Generator: Adobe Illustrator 25.4.1, SVG Export Plug-In . SVG Version: 6.00 Build 0)  -->
<svg version="1.1" id="Layer_1" xmlns="http://www.w3.org/2000/svg" xmlns:xlink="http://www.w3.org/1999/xlink" x="0px" y="0px"
	 viewBox="0 0 166 33" style="enable-background:new 0 0 166 33;" xml:space="preserve">
<style type="text/css">
	.st0{fill:#F0BD7E;}
</style>
<g>
	<path class="st0" d="M53.8,27.8h0.7l2,4.6h-0.9l-0.5-1.1H53l-0.5,1.1h-0.8L53.8,27.8z M54.9,30.6l-0.8-1.8l-0.8,1.8H54.9z"/>
	<path class="st0" d="M57.8,27.9h2.1c0.6,0,1,0.2,1.3,0.5c0.2,0.3,0.4,0.6,0.4,1v0c0,0.8-0.5,1.2-1.1,1.4l1.2,1.7h-1l-1.1-1.6h-1
		v1.6h-0.8V27.9z M59.8,30.1c0.6,0,0.9-0.3,0.9-0.8v0c0-0.5-0.3-0.8-1-0.8h-1.2v1.5H59.8z"/>
	<path class="st0" d="M62.9,30.2L62.9,30.2c0-1.3,1-2.4,2.4-2.4c0.8,0,1.4,0.3,1.8,0.7l-0.5,0.6c-0.4-0.3-0.8-0.6-1.3-0.6
		c-0.9,0-1.5,0.7-1.5,1.6v0c0,0.9,0.6,1.6,1.5,1.6c0.6,0,0.9-0.2,1.3-0.6l0.5,0.5c-0.5,0.5-1,0.8-1.9,0.8
		C63.9,32.5,62.9,31.5,62.9,30.2z"/>
	<path class="st0" d="M68.4,27.9h0.8v1.9h2.2v-1.9h0.8v4.6h-0.8v-1.9h-2.2v1.9h-0.8V27.9z"/>
	<path class="st0" d="M73.9,27.9h0.8v4.6h-0.8V27.9z"/>
	<path class="st0" d="M77.6,28.6h-1.5v-0.7h3.7v0.7h-1.5v3.9h-0.8V28.6z"/>
	<path class="st0" d="M81.2,27.9h3.4v0.7H82v1.2h2.3v0.7H82v1.2h2.6v0.7h-3.4V27.9z"/>
	<path class="st0" d="M85.9,30.2L85.9,30.2c0-1.3,1-2.4,2.4-2.4c0.8,0,1.4,0.3,1.8,0.7l-0.5,0.6c-0.4-0.3-0.8-0.6-1.3-0.6
		c-0.9,0-1.5,0.7-1.5,1.6v0c0,0.9,0.6,1.6,1.5,1.6c0.6,0,0.9-0.2,1.3-0.6l0.5,0.5c-0.5,0.5-1,0.8-1.9,0.8
		C86.9,32.5,85.9,31.5,85.9,30.2z"/>
	<path class="st0" d="M92.6,28.6h-1.5v-0.7h3.7v0.7h-1.5v3.9h-0.8V28.6z"/>
	<path class="st0" d="M96.1,30.5v-2.7h0.8v2.6c0,0.9,0.4,1.3,1.2,1.3c0.7,0,1.2-0.4,1.2-1.3v-2.7h0.8v2.6c0,1.4-0.8,2.1-2,2.1
		C96.9,32.5,96.1,31.9,96.1,30.5z"/>
	<path class="st0" d="M101.7,27.9h2.1c0.6,0,1,0.2,1.3,0.5c0.2,0.3,0.4,0.6,0.4,1v0c0,0.8-0.5,1.2-1.1,1.4l1.2,1.7h-1l-1.1-1.6h-1
		v1.6h-0.8V27.9z M103.7,30.1c0.6,0,0.9-0.3,0.9-0.8v0c0-0.5-0.3-0.8-1-0.8h-1.2v1.5H103.7z"/>
	<path class="st0" d="M106.9,27.9h3.4v0.7h-2.6v1.2h2.3v0.7h-2.3v1.2h2.6v0.7h-3.4V27.9z"/>
	<path class="st0" d="M116.9,31.9c-0.4,0.4-0.9,0.6-1.4,0.6c-0.9,0-1.5-0.5-1.5-1.3v0c0-0.6,0.3-1,1-1.3c-0.3-0.3-0.4-0.6-0.4-1v0
		c0-0.6,0.5-1.2,1.3-1.2c0.7,0,1.2,0.5,1.2,1.1v0c0,0.6-0.4,1-1,1.2l0.8,0.8c0.2-0.3,0.3-0.6,0.5-0.9l0.6,0.3
		c-0.2,0.4-0.4,0.7-0.6,1.1l0.7,0.7l-0.6,0.4L116.9,31.9z M116.4,31.5l-1-1c-0.4,0.2-0.6,0.5-0.6,0.8v0c0,0.4,0.3,0.7,0.8,0.7
		C115.8,31.9,116.1,31.7,116.4,31.5z M116.4,29L116.4,29c0-0.3-0.2-0.5-0.5-0.5c-0.3,0-0.5,0.2-0.5,0.6v0c0,0.2,0.1,0.4,0.3,0.7
		C116.1,29.5,116.4,29.3,116.4,29z"/>
	<path class="st0" d="M121.9,27.9h0.8v4.6h-0.8V27.9z"/>
	<path class="st0" d="M124.4,27.9h0.7l2.5,3.2v-3.2h0.8v4.6h-0.7l-2.5-3.3v3.3h-0.8V27.9z"/>
	<path class="st0" d="M131.2,28.6h-1.5v-0.7h3.7v0.7H132v3.9h-0.8V28.6z"/>
	<path class="st0" d="M134.8,27.9h3.4v0.7h-2.6v1.2h2.3v0.7h-2.3v1.2h2.6v0.7h-3.4V27.9z"/>
	<path class="st0" d="M139.7,27.9h2.1c0.6,0,1,0.2,1.3,0.5c0.2,0.3,0.4,0.6,0.4,1v0c0,0.8-0.5,1.2-1.1,1.4l1.2,1.7h-1l-1.1-1.6h-1
		v1.6h-0.8V27.9z M141.7,30.1c0.6,0,0.9-0.3,0.9-0.8v0c0-0.5-0.3-0.8-1-0.8h-1.2v1.5H141.7z"/>
	<path class="st0" d="M145,27.9h0.8v4.6H145V27.9z"/>
	<path class="st0" d="M147.3,30.2L147.3,30.2c0-1.3,1-2.4,2.4-2.4c1.4,0,2.4,1.1,2.4,2.4v0c0,1.3-1,2.4-2.4,2.4
		S147.3,31.5,147.3,30.2z M151.3,30.2L151.3,30.2c0-0.9-0.6-1.7-1.6-1.7c-0.9,0-1.6,0.7-1.6,1.6v0c0,0.9,0.6,1.6,1.6,1.6
		C150.7,31.8,151.3,31.1,151.3,30.2z"/>
	<path class="st0" d="M153.6,27.9h2.1c0.6,0,1,0.2,1.3,0.5c0.2,0.3,0.4,0.6,0.4,1v0c0,0.8-0.5,1.2-1.1,1.4l1.2,1.7h-1l-1.1-1.6h-1
		v1.6h-0.8V27.9z M155.6,30.1c0.6,0,0.9-0.3,0.9-0.8v0c0-0.5-0.3-0.8-1-0.8h-1.2v1.5H155.6z"/>
</g>
<g>
	<path class="st0" d="M37.5,29.3L21.6,2.1c-0.5-0.8-1.1-1.6-1.9-1.6c0,0,0,0,0,0c-0.8,0-1.4,0.8-1.9,1.7L0,32.6h4.6L9,25l0,0
		L19.7,6.8l12.7,21.8h-14h0H13l7.8-13.4c0.6-0.9,0.3-1.4-0.1-2l-0.1-0.1c-0.2-0.3-0.5-0.6-1-0.6c-0.5,0-0.7,0.4-1,0.8l-9.3,16
		c-0.5,0.8-0.9,1.7-0.5,2.5c0.4,0.7,1.3,0.8,2.1,0.8h7.5h0h17.2c1,0,2-0.1,2.4-0.8C38.4,31.1,38.1,30.3,37.5,29.3z"/>
	<g>
		<path class="st0" d="M126.1,6.5c4.5,0,5.6,2.1,5.9,3.4h4.3c-0.3-4.5-3.6-7.4-10.2-7.4c-6.8,0-10.5,3.3-10.5,9.4
			c0,6,3.7,9.4,9.8,9.4c3.5,0,6-1.3,7.6-3.1l0.2,2.9h3.1v-9.8h-10.5v3h6.2c-0.1,1.4-1.7,3.4-5.9,3.4c-5.5,0-6.3-3.4-6.3-5.7
			C119.8,9.8,120.5,6.5,126.1,6.5z"/>
		<rect x="137.9" y="2.8" class="st0" width="4.3" height="18.2"/>
		<polygon class="st0" points="157.4,2.8 151.7,2.8 143.2,21 147.8,21 154.6,6.3 159.5,17.1 159.5,17.1 161.3,21 166,21 		"/>
		<path class="st0" d="M56.3,2.8h-13V21h4.3v-4.9h8.7c3.8,0,6.3-2.6,6.3-6.7C62.6,5.4,60,2.8,56.3,2.8z M55.1,12.2h-7.6V6.7h7.6
			c1.3,0,3.3,0,3.3,2.8C58.3,12.2,56.4,12.2,55.1,12.2z"/>
		<polygon class="st0" points="79.3,9.9 68.4,9.9 68.4,2.8 64.1,2.8 64.1,21 68.4,21 68.4,13.9 79.3,13.9 79.3,21 83.5,21 83.5,2.8 
			79.3,2.8 		"/>
		<path class="st0" d="M110.4,3.2c0.3-0.3,0.2-0.6-0.3-0.6h-0.9c-0.5,0-1.1,0.3-1.4,0.6l-1.3,1.6c-0.3,0.4-0.2,0.6,0.3,0.6h0.7
			c0.5,0,1.1-0.3,1.4-0.6L110.4,3.2z"/>
		<path class="st0" d="M105.6,6.3c-0.3-0.4-0.8-0.7-1.4-0.7c-0.1,0-0.2,0-0.3,0c-2,0.2-4.2,0.4-6.8,0.4c-0.2,0-0.5,0-0.7,0
			c-0.2,0-0.5,0-0.7,0c-2.6,0-4.8-0.1-6.8-0.4c-0.1,0-0.2,0-0.3,0c-0.6,0-1.1,0.3-1.4,0.7C86.3,7.6,86,9.1,86,10.9v1.9
			c0,5.6,3.2,8.5,10.4,8.5h0h0c7.2,0,10.4-2.8,10.4-8.5v-1.9C106.7,9.1,106.4,7.6,105.6,6.3z M102.1,12.5c0,3.1-1.7,4.2-5.8,4.2
			c-4,0-5.8-1.1-5.8-4.2v-1.3c0-3.1,1.7-4.2,5.8-4.2c4.1,0,5.8,1.1,5.8,4.2V12.5z"/>
		<path class="st0" d="M90.1,4.6L90.1,4.6L90.1,4.6c0.9,0.1,1.8,0.2,2.8,0.2c0,0,0.1,0,0.2,0c0.1,0,0.1,0,0.2,0
			c0.8-0.3,2.6-0.4,3.5-0.5c0.9,0,2.4,0.1,3.2,0.5c0,0,0.1,0,0.2,0s0.1,0,0.2,0c1-0.1,1.9-0.1,2.7-0.2h0v0c0.1,0,0.1-0.1,0.1-0.2
			c0-0.1,0-0.1-0.1-0.1c-1.5-1.2-3.5-1.8-6.4-1.8c0,0-0.1,0-0.1,0c0,0-0.1,0-0.1,0c-2.8,0-4.9,0.6-6.4,1.8c0,0-0.1,0.1-0.1,0.1
			C89.9,4.5,90,4.6,90.1,4.6z"/>
	</g>
</g>
</svg>
