<?xml version="1.0" encoding="utf-8"?>
<!-- Generator: Adobe Illustrator 25.4.1, SVG Export Plug-In . SVG Version: 6.00 Build 0)  -->
<svg version="1.1" id="Layer_1" xmlns="http://www.w3.org/2000/svg" xmlns:xlink="http://www.w3.org/1999/xlink" x="0px" y="0px"
	 viewBox="0 0 26 22" style="enable-background:new 0 0 26 22;" xml:space="preserve">
<style type="text/css">
	.st0{fill:#F0BD7E;}
</style>
<path class="st0" d="M25.5,19.7L14.7,1.2c-0.3-0.6-0.7-1.1-1.3-1.1l0,0c-0.6,0-1,0.5-1.3,1.1L0,21.9h3.1l3-5.1l0,0l7.3-12.4
	l8.7,14.8h-9.5l0,0H8.8l5.3-9.1c0.4-0.6,0.2-1-0.1-1.4V8.6c-0.2-0.2-0.3-0.4-0.7-0.4c-0.3,0-0.5,0.3-0.7,0.6L6.4,19.7
	C6,20.3,5.7,20.9,6,21.4S6.9,22,7.4,22h5.1l0,0h11.7c0.7,0,1.3-0.1,1.6-0.6C26.1,20.9,25.9,20.4,25.5,19.7z"/>
</svg>
