<?xml version="1.0" encoding="utf-8"?>
<!-- Generator: Adobe Illustrator 25.4.1, SVG Export Plug-In . SVG Version: 6.00 Build 0)  -->
<svg version="1.1" id="Layer_1" xmlns="http://www.w3.org/2000/svg" xmlns:xlink="http://www.w3.org/1999/xlink" x="0px" y="0px"
	 viewBox="0 0 340 372" style="enable-background:new 0 0 340 372;" xml:space="preserve">
<style type="text/css">
	.st0{fill-rule:evenodd;clip-rule:evenodd;fill:url(#SVGID_1_);}
	.st1{fill-rule:evenodd;clip-rule:evenodd;fill:#F2F2F2;}
	.st2{fill:#5A8492;}
	.st3{fill:#F1BE7E;}
</style>
<linearGradient id="SVGID_1_" gradientUnits="userSpaceOnUse" x1="-3.0517" y1="45.8075" x2="346.6087" y2="429.0598" gradientTransform="matrix(1 0 0 -1 0 372)">
	<stop  offset="3.000000e-08" style="stop-color:#E4B375"/>
	<stop  offset="6.680799e-02" style="stop-color:#D29D5B"/>
	<stop  offset="0.107" style="stop-color:#CB9551"/>
	<stop  offset="0.3128" style="stop-color:#F0BD7D"/>
	<stop  offset="0.4465" style="stop-color:#E5B377"/>
	<stop  offset="0.639" style="stop-color:#E5B377"/>
	<stop  offset="0.8529" style="stop-color:#F0BD7D"/>
	<stop  offset="0.8946" style="stop-color:#EBB877"/>
	<stop  offset="0.9501" style="stop-color:#DDA866"/>
	<stop  offset="1" style="stop-color:#CB9551"/>
</linearGradient>
<path class="st0" d="M339.9,40.1c-105.4,0-169.6-40.5-169.6-40.5s-64,40.5-169.4,40.5c0,0-6.5,132.1,28.6,208.2
	c24.5,52.9,70,97.6,140.8,123.4c71-25.7,116.5-70.5,141-123.4C346.3,172.2,339.9,40.1,339.9,40.1z M301.8,243.8
	c-25.1,54.2-69.4,93.9-131.5,118.1C109,337.9,63.7,297.2,38.9,243.8C11.8,185.2,9.5,90.8,9.8,50.6c81.3-3.6,137.8-28,160.4-39.7
	c22.7,11.7,79.3,36.1,160.6,39.7C331.2,90.8,328.8,185.3,301.8,243.8z"/>
<path class="st1" d="M170.2,352.8c-57.8-23.3-100.6-62.4-124.1-113.1C21.2,185.5,17.9,98.6,17.8,56.9c75.6-4.6,129.4-27,152.4-38.4
	c23,11.4,77,33.8,152.6,38.4c-0.1,41.7-3.4,128.7-28.4,182.8C270.6,291.2,228.9,329.3,170.2,352.8z"/>
<g>
	<path class="st2" d="M68.4,82.3c0,0.5,0.1,0.9,0.2,1.2c0.2,0.3,0.4,0.6,0.6,0.8c0.3,0.2,0.7,0.5,1.2,0.8v0.2h-7.7v-0.2
		c0.5-0.3,0.8-0.6,1-0.8c0.2-0.2,0.3-0.4,0.4-0.7s0.2-0.7,0.2-1.3V70.6c0-0.5-0.1-1-0.2-1.3c-0.1-0.3-0.2-0.6-0.4-0.7
		c-0.2-0.2-0.5-0.4-1-0.8v-0.2h8.9c2.1,0,3.8,0.5,5.1,1.4c1.3,0.9,1.9,2.3,1.9,4c0,1.7-0.6,3.1-1.9,4c-1.3,0.9-3,1.4-5.1,1.4h-3.3
		V82.3z M73.6,76.2c0.7-0.7,1.1-1.8,1.1-3.2c0-1.4-0.4-2.5-1.1-3.2s-1.9-1.1-3.4-1.1h-1.8v8.6h1.8C71.7,77.3,72.8,76.9,73.6,76.2z"
		/>
	<path class="st2" d="M81.5,84.3c0.2-0.2,0.3-0.4,0.4-0.7c0.1-0.3,0.2-0.7,0.2-1.3V70.6c0-0.5-0.1-1-0.2-1.3
		c-0.1-0.3-0.2-0.6-0.4-0.7c-0.2-0.2-0.5-0.4-1-0.8v-0.2h7.1v0.2c-0.5,0.3-0.8,0.6-1,0.8s-0.3,0.4-0.4,0.7c-0.1,0.3-0.1,0.7-0.1,1.3
		v5h8.6v-5c0-0.5-0.1-1-0.2-1.3c-0.1-0.3-0.2-0.6-0.4-0.7c-0.2-0.2-0.5-0.4-1-0.8v-0.2h7.1v0.2c-0.5,0.3-0.8,0.6-1,0.8
		s-0.3,0.4-0.4,0.7c-0.1,0.3-0.1,0.7-0.1,1.3v11.8c0,0.6,0.1,1,0.1,1.3c0.1,0.3,0.2,0.5,0.4,0.7c0.2,0.2,0.5,0.4,1,0.8v0.2h-7.1
		v-0.2c0.5-0.3,0.8-0.6,1-0.8s0.3-0.4,0.4-0.7c0.1-0.3,0.2-0.7,0.2-1.3v-5.6h-8.6v5.6c0,0.6,0.1,1,0.1,1.3c0.1,0.3,0.2,0.5,0.4,0.7
		c0.2,0.2,0.5,0.4,1,0.8v0.2h-7.1v-0.2C81,84.8,81.3,84.5,81.5,84.3z"/>
	<path class="st2" d="M103.7,71.8c0.8-1.4,1.9-2.5,3.3-3.2c1.4-0.8,2.9-1.2,4.7-1.2c1.7,0,3.3,0.4,4.7,1.2c1.4,0.8,2.5,1.9,3.3,3.2
		s1.2,2.9,1.2,4.7c0,1.7-0.4,3.3-1.2,4.7s-1.9,2.5-3.3,3.2c-1.4,0.8-3,1.2-4.7,1.2c-1.7,0-3.3-0.4-4.7-1.2c-1.4-0.8-2.5-1.9-3.3-3.2
		s-1.2-2.9-1.2-4.7C102.4,74.7,102.8,73.1,103.7,71.8z M115.2,70.6c-0.8-1.3-2-2-3.6-2c-1.6,0-2.8,0.7-3.6,2
		c-0.8,1.3-1.2,3.3-1.2,5.8c0,2.6,0.4,4.5,1.2,5.8s2,2,3.6,2c1.6,0,2.8-0.7,3.6-2c0.8-1.3,1.2-3.3,1.2-5.8
		C116.4,73.9,116,71.9,115.2,70.6z M113.4,63.7c0.7,0.9,1.3,1.7,2,2.4h-0.8c-0.9-0.5-1.9-1.1-2.9-2c-1,0.8-2,1.5-2.9,2H108
		c0.7-0.7,1.3-1.5,2-2.4s1.2-1.6,1.5-2.2h0.3C112.2,62,112.7,62.8,113.4,63.7z M115.7,63.8h-0.6l1.2-3.9h3.4L115.7,63.8z"/>
	<path class="st2" d="M141.1,78.4c-0.1-0.3-0.2-0.6-0.4-0.7c-0.2-0.2-0.5-0.4-1-0.8v-0.2h7.2v0.2c-0.5,0.3-0.8,0.6-1,0.8
		s-0.3,0.4-0.4,0.7s-0.1,0.7-0.1,1.3v5.8h-0.5l-2.4-2.3c-0.6,0.7-1.3,1.3-2.2,1.7c-0.9,0.4-1.9,0.6-3.1,0.6c-1.7,0-3.2-0.4-4.6-1.1
		c-1.4-0.7-2.4-1.8-3.2-3.1s-1.2-2.9-1.2-4.7c0-1.8,0.4-3.4,1.3-4.8c0.8-1.4,2-2.5,3.4-3.3s3.1-1.2,4.8-1.2c2,0,3.6,0.5,4.8,1.4
		l1.4-1.4h0.2v6h-0.3c-0.7-1.1-1.2-1.9-1.8-2.6c-0.5-0.7-1.1-1.2-1.7-1.6s-1.4-0.6-2.2-0.6c-1.1,0-2,0.3-2.9,1
		c-0.8,0.7-1.5,1.6-1.9,2.8c-0.5,1.2-0.7,2.5-0.7,4.1c0,1.4,0.2,2.8,0.7,3.9s1.1,2,1.9,2.7c0.8,0.6,1.8,1,2.9,1
		c1.3,0,2.3-0.5,3.1-1.4v-2.8C141.3,79.2,141.2,78.7,141.1,78.4z"/>
	<path class="st2" d="M150.1,69.3c-0.1-0.3-0.2-0.6-0.4-0.7c-0.2-0.2-0.5-0.4-1-0.8v-0.2h7.1v0.2c-0.5,0.3-0.8,0.6-1,0.8
		c-0.2,0.2-0.4,0.4-0.4,0.7c-0.1,0.3-0.1,0.7-0.1,1.3v11.8c0,0.6,0.1,1,0.1,1.3c0.1,0.3,0.2,0.5,0.4,0.7c0.2,0.2,0.5,0.4,1,0.8v0.2
		h-7.1v-0.2c0.5-0.3,0.8-0.6,1-0.8s0.3-0.4,0.4-0.7s0.1-0.7,0.1-1.3V70.6C150.2,70,150.2,69.6,150.1,69.3z"/>
	<path class="st2" d="M157.3,85.3v-0.2c0.5-0.4,0.9-0.8,1.2-1.1s0.6-0.9,0.9-1.6l7.3-15.2h0.1l7.3,15.2c0.4,0.8,0.7,1.3,0.9,1.6
		c0.2,0.3,0.6,0.7,1.1,1.1v0.2h-7.1v-0.2c0.4-0.3,0.7-0.5,0.9-0.7s0.2-0.4,0.2-0.7c0-0.3-0.1-0.6-0.3-1l-1.1-2.4h-7l-1.1,2.2
		c-0.2,0.4-0.3,0.7-0.3,1c0,0.2,0.1,0.4,0.3,0.6c0.2,0.2,0.6,0.5,1.2,0.9v0.2C162,85.3,157.3,85.3,157.3,85.3z M168.3,79.1l-3-6.3
		l-3,6.3H168.3z"/>
	<path class="st2" d="M183.8,84.3c0.2-0.2,0.3-0.4,0.4-0.7s0.1-0.7,0.1-1.3V70.6c0-0.5-0.1-1-0.1-1.3c-0.1-0.3-0.2-0.6-0.4-0.7
		c-0.2-0.2-0.5-0.4-1-0.8v-0.2h7.8c3.2,0,5.7,0.8,7.5,2.3s2.7,3.7,2.7,6.5c0,2-0.4,3.6-1.2,4.9c-0.8,1.3-2,2.3-3.4,3
		c-1.5,0.7-3.2,1-5.1,1h-8.3v-0.2C183.2,84.8,183.6,84.5,183.8,84.3z M194.9,70.7c-1.1-1.3-2.6-2-4.6-2h-1.9v15.3h2.2
		c4,0,5.9-2.6,5.9-7.8C196.5,73.9,196,72.1,194.9,70.7z"/>
	<path class="st2" d="M214.8,79.1c-0.3-0.8-0.6-1.3-0.9-1.7c-0.2-0.3-0.5-0.5-0.9-0.6c-0.4-0.1-0.9-0.1-1.6-0.1h-2.8v7.4h4.4
		c0.9,0,1.6-0.1,2.1-0.4c0.6-0.3,1.1-0.7,1.5-1.2c0.4-0.5,1-1.3,1.6-2.3h0.3l-0.8,5H203v-0.2c0.5-0.3,0.8-0.6,1-0.8s0.3-0.4,0.4-0.7
		s0.1-0.7,0.1-1.3V70.6c0-0.5-0.1-1-0.1-1.3c-0.1-0.3-0.2-0.6-0.4-0.7c-0.2-0.2-0.5-0.4-1-0.8v-0.2h12.4c0.5,0,1-0.1,1.5-0.2
		l0.9,4.7h-0.3l-0.6-0.8c-0.5-0.7-1-1.2-1.3-1.5c-0.4-0.3-0.8-0.6-1.3-0.8s-1.2-0.3-2-0.3h-3.7v6.9h2.8c0.8,0,1.3-0.1,1.7-0.1
		s0.6-0.3,0.9-0.6c0.2-0.3,0.5-0.9,0.9-1.7h0.3v6L214.8,79.1L214.8,79.1z"/>
	<path class="st2" d="M227.6,69.5c-0.8,0.7-1.4,1.5-1.9,2.7c-0.4,1.1-0.6,2.4-0.6,3.8c0,1.6,0.2,2.9,0.8,4s1.2,1.9,2.1,2.5
		c0.9,0.6,1.9,0.9,3.1,0.9c1.1,0,2.2-0.3,3.1-0.8c0.9-0.5,1.7-1.4,2.4-2.7l0.4,0.2c-0.5,1.7-1.3,3.1-2.6,4c-1.3,1-2.8,1.5-4.7,1.5
		c-1.7,0-3.3-0.4-4.7-1.1c-1.4-0.8-2.4-1.8-3.2-3.2s-1.2-3-1.2-4.8c0-1.7,0.4-3.3,1.2-4.7c0.8-1.4,2-2.5,3.4-3.2
		c1.4-0.8,3-1.2,4.6-1.2c1.9,0,3.5,0.5,4.8,1.4l1.4-1.4h0.2v6h-0.3c-0.9-1.6-1.8-2.8-2.6-3.6c-0.8-0.8-1.8-1.2-3-1.2
		C229.3,68.5,228.4,68.9,227.6,69.5z"/>
	<path class="st2" d="M240.2,71.8c0.8-1.4,1.9-2.5,3.3-3.2c1.4-0.8,2.9-1.2,4.7-1.2c1.7,0,3.3,0.4,4.7,1.2c1.4,0.8,2.5,1.9,3.3,3.2
		s1.2,2.9,1.2,4.7c0,1.7-0.4,3.3-1.2,4.7s-1.9,2.5-3.3,3.2c-1.4,0.8-3,1.2-4.7,1.2c-1.7,0-3.3-0.4-4.7-1.2c-1.4-0.8-2.5-1.9-3.3-3.2
		s-1.2-2.9-1.2-4.7C239,74.7,239.4,73.1,240.2,71.8z M251.8,70.6c-0.8-1.3-2-2-3.6-2c-1.6,0-2.8,0.7-3.6,2s-1.2,3.3-1.2,5.8
		c0,2.6,0.4,4.5,1.2,5.8c0.8,1.3,2,2,3.6,2c1.6,0,2.8-0.7,3.6-2s1.2-3.3,1.2-5.8C253,73.9,252.6,71.9,251.8,70.6z"/>
	<path class="st2" d="M265.4,83.6c0.1,0.3,0.2,0.5,0.4,0.7c0.2,0.2,0.5,0.4,1,0.8v0.2h-7.1v-0.2c0.5-0.3,0.8-0.6,1-0.8
		s0.3-0.4,0.4-0.7s0.1-0.7,0.1-1.3V70.6c0-0.5,0-1-0.1-1.3c-0.1-0.3-0.2-0.6-0.4-0.7c-0.2-0.2-0.5-0.4-1-0.8v-0.2h9.5
		c2,0,3.6,0.4,4.8,1.2c1.2,0.8,1.9,2,1.9,3.6c0,1.4-0.5,2.5-1.6,3.2c-1.1,0.8-2.4,1.1-4,1.2v0.1c1.1,0.1,2,0.4,2.8,0.9
		c0.7,0.5,1.2,1.3,1.6,2.3l0.8,2.1c0.2,0.6,0.4,1.1,0.6,1.4s0.5,0.6,0.7,0.8c0.3,0.2,0.6,0.4,1.1,0.7v0.3h-5.3
		c-0.2-0.4-0.5-0.8-0.6-1.2c-0.1-0.4-0.3-0.9-0.6-1.5l-1-2.9c-0.3-0.9-0.6-1.5-1.1-1.8s-1.1-0.5-1.9-0.5h-2.1v5
		C265.2,82.9,265.3,83.3,265.4,83.6z M267.7,76.3c1.2,0,2.2-0.3,2.9-0.9s1-1.6,1-2.8c0-1.2-0.3-2.1-1-2.8c-0.7-0.7-1.6-1-2.9-1h-2.5
		v7.6H267.7z"/>
</g>
<g>
	<g>
		<path class="st3" d="M154.1,116.1c-6-5.6-13.3-8.3-22-8.3s-16,2.8-22,8.3c-6.5,6.1-9.8,14.1-9.8,23.9v49.4
			c0,9.9,3.2,17.8,9.8,23.9c6,5.6,13.3,8.3,22,8.3c8.7,0,16-2.8,22-8.3c6.5-6.1,9.8-14.1,9.8-23.9V140
			C163.8,130.1,160.6,122.2,154.1,116.1z M147.8,188.4c0,5.4-1.4,9.5-4.2,12.6c-2.8,3-6.7,4.6-11.5,4.6c-4.8,0-8.7-1.5-11.5-4.6
			c-2.8-3-4.2-7.2-4.2-12.6v-47.5c0-5.4,1.4-9.5,4.2-12.6c2.8-3,6.7-4.6,11.5-4.6c4.8,0,8.6,1.5,11.5,4.6c2.8,3,4.2,7.2,4.2,12.6
			V188.4z"/>
		<path class="st3" d="M229.6,116.1c-6-5.6-13.3-8.3-22-8.3c-8.7,0-16,2.8-22,8.3c-6.5,6.1-9.8,14.1-9.8,23.9v49.4
			c0,9.9,3.2,17.8,9.8,23.9c6,5.6,13.3,8.3,22,8.3c8.7,0,16-2.8,22-8.3c6.5-6.1,9.8-14.1,9.8-23.9V140
			C239.3,130.1,236.1,122.2,229.6,116.1z M223.3,188.4c0,5.4-1.4,9.5-4.2,12.6c-2.8,3-6.7,4.6-11.5,4.6c-4.8,0-8.6-1.5-11.5-4.6
			s-4.2-7.2-4.2-12.6v-47.5c0-5.4,1.4-9.5,4.2-12.6c2.8-3,6.7-4.6,11.5-4.6c4.8,0,8.6,1.5,11.5,4.6c2.8,3,4.2,7.2,4.2,12.6V188.4z"
			/>
		<polygon class="st3" points="55.3,120.3 55.3,137.3 71.2,125.7 71.2,220.7 87.2,220.7 87.2,108.7 71.2,108.7 		"/>
	</g>
	<g>
		<path class="st3" d="M247,123.1v-6.2c0-2.8,0.8-4.9,2.3-6.6s3.6-2.5,6.4-2.5c2.7,0,4.8,0.8,6.3,2.5c1.5,1.7,2.3,3.8,2.3,6.6v6.2
			c0,2.8-0.8,5-2.3,6.6s-3.6,2.5-6.4,2.5c-2.7,0-4.8-0.8-6.4-2.5C247.7,128,247,125.8,247,123.1z M247.6,173.8l31-65.5h6.1l-31,65.5
			H247.6z M252.2,117.5v4.9c0,3,1.1,4.5,3.4,4.5c2.3,0,3.4-1.5,3.4-4.5v-4.9c0-3-1.1-4.5-3.4-4.5C253.3,113,252.2,114.5,252.2,117.5
			z M268,165.3V159c0-2.8,0.8-5,2.3-6.6c1.5-1.7,3.6-2.5,6.4-2.5s4.8,0.8,6.4,2.5c1.5,1.7,2.3,3.9,2.3,6.6v6.3c0,2.8-0.8,5-2.3,6.6
			c-1.5,1.7-3.6,2.5-6.4,2.5s-4.8-0.8-6.4-2.5S268,168,268,165.3z M273.3,159.6v5c0,3,1.1,4.5,3.4,4.5c2.3,0,3.4-1.5,3.4-4.5v-5
			c0-3-1.1-4.5-3.4-4.5C274.4,155.1,273.3,156.6,273.3,159.6z"/>
	</g>
</g>
<g>
	<path class="st2" d="M81.7,246.5c-1.3,1.1-2.3,2.5-3,4.4c-0.7,1.8-1.1,3.9-1.1,6.2c0,2.5,0.4,4.7,1.2,6.5c0.8,1.8,2,3.2,3.4,4.1
		s3.1,1.4,5,1.4c1.9,0,3.6-0.4,5.1-1.3s2.8-2.3,3.9-4.4l0.6,0.2c-0.7,2.8-2.2,5-4.2,6.6s-4.6,2.4-7.7,2.4c-2.8,0-5.4-0.6-7.6-1.8
		c-2.2-1.2-4-3-5.2-5.2c-1.3-2.3-1.9-4.9-1.9-7.8c0-2.8,0.7-5.4,2-7.6s3.2-4,5.5-5.3c2.3-1.3,4.8-1.9,7.6-1.9c3.2,0,5.8,0.8,7.8,2.4
		l2.3-2.4h0.4v9.8h-0.5c-1.5-2.6-2.9-4.5-4.3-5.8c-1.3-1.3-2.9-2-4.8-2C84.5,244.9,83,245.5,81.7,246.5z"/>
	<path class="st2" d="M98.2,272.3v-0.4c0.8-0.7,1.5-1.3,1.9-1.9s0.9-1.4,1.6-2.6l11.9-24.8h0.2l11.9,24.8c0.6,1.2,1.1,2.1,1.5,2.7
		c0.4,0.5,1,1.1,1.9,1.8v0.4h-11.6v-0.4c0.7-0.4,1.2-0.8,1.5-1.2c0.3-0.3,0.4-0.7,0.4-1.2s-0.2-1-0.4-1.6l-1.8-3.9h-11.5l-1.7,3.7
		c-0.3,0.6-0.4,1.1-0.4,1.6c0,0.4,0.2,0.7,0.5,1c0.3,0.3,1,0.8,2,1.5v0.4L98.2,272.3L98.2,272.3z M116.2,262.2l-4.9-10.3l-4.8,10.3
		H116.2z"/>
	<path class="st2" d="M167.6,243.4v0.4c-0.7,0.5-1.3,0.9-1.6,1.2s-0.6,0.7-0.7,1.2s-0.2,1.2-0.2,2.1v19.2c0,0.9,0.1,1.6,0.2,2.1
		c0.1,0.5,0.4,0.9,0.7,1.2c0.3,0.3,0.9,0.7,1.6,1.2v0.4h-11.5v-0.4c0.8-0.5,1.3-0.9,1.6-1.2s0.6-0.7,0.7-1.2
		c0.2-0.5,0.2-1.2,0.2-2.1v-20.5l-10.8,25.8h-0.2l-11.2-25.8v20.3c0,0.9,0.1,1.5,0.4,2.1c0.2,0.5,0.5,0.9,0.9,1.3
		c0.4,0.3,1,0.8,1.9,1.3v0.4H131v-0.4c0.9-0.6,1.6-1.1,1.9-1.4s0.7-0.7,0.9-1.2c0.2-0.5,0.4-1.2,0.4-2.1v-19c0-0.9-0.1-1.6-0.2-2.1
		c-0.2-0.5-0.4-0.9-0.7-1.2c-0.3-0.3-0.9-0.7-1.6-1.2v-0.4h10.6l8.3,18.5l7.4-18.5L167.6,243.4L167.6,243.4z"/>
	<path class="st2" d="M179.4,271.9c0.8-0.5,1.3-0.9,1.6-1.2s0.6-0.7,0.7-1.2c0.2-0.5,0.2-1.2,0.2-2.1v-19.2c0-0.9-0.1-1.6-0.2-2.1
		c-0.2-0.5-0.4-0.9-0.7-1.2c-0.3-0.3-0.9-0.7-1.6-1.2v-0.4H191v0.4c-0.7,0.5-1.3,0.9-1.6,1.2s-0.6,0.7-0.7,1.2s-0.2,1.2-0.2,2.1
		v10.4l12.1-11.6c0.2-0.2,0.4-0.5,0.5-0.7c0.1-0.2,0.1-0.4,0.1-0.7c0-0.3-0.1-0.6-0.3-0.9s-0.6-0.6-1.1-1.1v-0.4h8.8v0.4
		c-1.3,0.6-2.4,1.3-3.3,1.9c-0.9,0.6-1.9,1.4-2.9,2.4l-6.3,6l9.4,13.7c0.7,1,1.4,1.8,2.1,2.5s1.6,1.2,2.6,1.7v0.5h-11.9V272
		c0.4-0.3,0.6-0.6,0.8-0.8s0.2-0.4,0.2-0.7c0-0.3-0.1-0.6-0.2-1s-0.4-0.8-0.9-1.5l-6.7-9.7l-3.1,3v6.2c0,0.9,0.1,1.6,0.2,2.1
		c0.1,0.5,0.4,0.9,0.7,1.2c0.3,0.3,0.9,0.7,1.6,1.2v0.4h-11.6V271.9z"/>
	<path class="st2" d="M231.4,262.2c-0.6-1.3-1-2.2-1.4-2.7c-0.4-0.5-0.9-0.9-1.5-1s-1.5-0.2-2.7-0.2h-4.5v12.1h7.1
		c1.4,0,2.6-0.2,3.5-0.7c0.9-0.5,1.8-1.1,2.5-1.9s1.6-2.1,2.7-3.7h0.4l-1.3,8.2h-24v-0.4c0.8-0.5,1.3-0.9,1.6-1.2s0.6-0.7,0.7-1.2
		c0.2-0.5,0.2-1.2,0.2-2.1v-19.2c0-0.9-0.1-1.6-0.2-2.1c-0.2-0.5-0.4-0.9-0.7-1.2c-0.3-0.3-0.9-0.7-1.6-1.2v-0.4h20.2
		c0.8,0,1.6-0.1,2.5-0.2l1.4,7.7h-0.4l-1-1.3c-0.9-1.1-1.6-1.9-2.2-2.4s-1.3-1-2.2-1.3c-0.9-0.3-1.9-0.5-3.2-0.5h-6v11.2h4.5
		c1.2,0,2.1-0.1,2.7-0.2c0.6-0.1,1.1-0.5,1.4-1c0.4-0.5,0.9-1.4,1.4-2.7h0.5v9.8L231.4,262.2L231.4,262.2z M227.5,237
		c1.1,1.4,2.2,2.8,3.3,3.9h-1.3c-1.5-0.8-3.1-1.8-4.8-3.2c-1.6,1.4-3.2,2.4-4.8,3.2h-1.3c1.1-1.2,2.2-2.5,3.3-3.9
		c1.1-1.4,1.9-2.7,2.5-3.6h0.6C225.6,234.3,226.4,235.6,227.5,237z M231.3,237.3h-1l2-6.4h5.5L231.3,237.3z"/>
	<path class="st2" d="M269,243.1l1.3,9.1h-0.5l-1-1.4c-0.9-1.4-1.7-2.4-2.2-3.1s-1.3-1.3-2.1-1.8s-1.8-0.7-3-0.7h-3.1v22.1
		c0,0.9,0.1,1.6,0.3,2.1s0.5,0.9,0.8,1.3s0.9,0.7,1.7,1.2v0.4h-12.1v-0.4c0.8-0.5,1.4-0.9,1.7-1.2c0.4-0.3,0.6-0.8,0.8-1.3
		s0.3-1.2,0.3-2.1v-22.1h-3.1c-1.1,0-2.1,0.2-3,0.7s-1.6,1.1-2.2,1.8c-0.6,0.7-1.3,1.8-2.2,3.1c-0.4,0.6-0.7,1.1-0.9,1.4h-0.5
		l1.3-9.1c0.8,0.2,1.6,0.2,2.5,0.2h22.6C267.4,243.4,268.2,243.3,269,243.1z"/>
</g>
</svg>
